<svg width="44" height="44" viewBox="0 0 44 44" fill="none" xmlns="http://www.w3.org/2000/svg">
<g clip-path="url(#clip0_1_651)">
<mask id="mask0_1_651" style="mask-type:alpha" maskUnits="userSpaceOnUse" x="0" y="0" width="44" height="44">
<path d="M0 10.3125C0 4.61706 4.61706 0 10.3125 0H33.6875C39.3829 0 44 4.61706 44 10.3125V33.6875C44 39.3829 39.3829 44 33.6875 44H10.3125C4.61706 44 0 39.3829 0 33.6875V10.3125Z" fill="white"/>
</mask>
<g mask="url(#mask0_1_651)">
<rect width="44" height="44" fill="#130D19"/>
<path d="M0 10.3125C0 4.61706 4.61706 0 10.3125 0H33.6875C39.3829 0 44 4.61706 44 10.3125V33.6875C44 39.3829 39.3829 44 33.6875 44H10.3125C4.61706 44 0 39.3829 0 33.6875V10.3125Z" fill="#130D19"/>
</g>
<g filter="url(#filter0_ddi_1_651)">
<path d="M31.2812 27.1562L21.7699 13.4062L12.7188 27.1562H16.4313L21.7699 18.7572L27.5994 27.1562H31.2812Z" fill="url(#paint0_linear_1_651)"/>
<path d="M31.2812 27.1562L21.7699 13.4062L12.7188 27.1562H16.4313L21.7699 18.7572L27.5994 27.1562H31.2812Z" stroke="url(#paint1_linear_1_651)" stroke-width="0.923645"/>
</g>
<g filter="url(#filter1_f_1_651)">
<path d="M39.1875 22C39.1875 31.4924 31.4924 39.1875 22 39.1875C12.5076 39.1875 4.8125 31.4924 4.8125 22C4.8125 12.5076 12.5076 4.8125 22 4.8125C31.4924 4.8125 39.1875 12.5076 39.1875 22ZM5.84375 22C5.84375 30.9228 13.0771 38.1562 22 38.1562C30.9228 38.1562 38.1562 30.9228 38.1562 22C38.1562 13.0771 30.9228 5.84375 22 5.84375C13.0771 5.84375 5.84375 13.0771 5.84375 22Z" fill="url(#paint2_linear_1_651)"/>
</g>
<g filter="url(#filter2_d_1_651)">
<path d="M39.1875 22C39.1875 31.4924 31.4924 39.1875 22 39.1875C12.5076 39.1875 4.8125 31.4924 4.8125 22C4.8125 12.5076 12.5076 4.8125 22 4.8125C31.4924 4.8125 39.1875 12.5076 39.1875 22ZM5.84375 22C5.84375 30.9228 13.0771 38.1562 22 38.1562C30.9228 38.1562 38.1562 30.9228 38.1562 22C38.1562 13.0771 30.9228 5.84375 22 5.84375C13.0771 5.84375 5.84375 13.0771 5.84375 22Z" fill="url(#paint3_linear_1_651)"/>
</g>
</g>
<defs>
<filter id="filter0_ddi_1_651" x="10.8306" y="11.8932" width="22.3629" height="17.0998" filterUnits="userSpaceOnUse" color-interpolation-filters="sRGB">
<feFlood flood-opacity="0" result="BackgroundImageFix"/>
<feColorMatrix in="SourceAlpha" type="matrix" values="0 0 0 0 0 0 0 0 0 0 0 0 0 0 0 0 0 0 127 0" result="hardAlpha"/>
<feOffset dx="0.541872" dy="0.541872"/>
<feComposite in2="hardAlpha" operator="out"/>
<feColorMatrix type="matrix" values="0 0 0 0 0.231373 0 0 0 0 0.560784 0 0 0 0 0.533333 0 0 0 0.2 0"/>
<feBlend mode="normal" in2="BackgroundImageFix" result="effect1_dropShadow_1_651"/>
<feColorMatrix in="SourceAlpha" type="matrix" values="0 0 0 0 0 0 0 0 0 0 0 0 0 0 0 0 0 0 127 0" result="hardAlpha"/>
<feOffset dy="0.34375"/>
<feGaussianBlur stdDeviation="0.515625"/>
<feComposite in2="hardAlpha" operator="out"/>
<feColorMatrix type="matrix" values="0 0 0 0 0 0 0 0 0 0 0 0 0 0 0 0 0 0 0.25 0"/>
<feBlend mode="normal" in2="effect1_dropShadow_1_651" result="effect2_dropShadow_1_651"/>
<feBlend mode="normal" in="SourceGraphic" in2="effect2_dropShadow_1_651" result="shape"/>
<feColorMatrix in="SourceAlpha" type="matrix" values="0 0 0 0 0 0 0 0 0 0 0 0 0 0 0 0 0 0 127 0" result="hardAlpha"/>
<feOffset dx="0.171875" dy="0.171875"/>
<feGaussianBlur stdDeviation="2.57812"/>
<feComposite in2="hardAlpha" operator="arithmetic" k2="-1" k3="1"/>
<feColorMatrix type="matrix" values="0 0 0 0 0 0 0 0 0 0 0 0 0 0 0 0 0 0 0.4 0"/>
<feBlend mode="normal" in2="shape" result="effect3_innerShadow_1_651"/>
</filter>
<filter id="filter1_f_1_651" x="2.75" y="2.75" width="38.5" height="38.5" filterUnits="userSpaceOnUse" color-interpolation-filters="sRGB">
<feFlood flood-opacity="0" result="BackgroundImageFix"/>
<feBlend mode="normal" in="SourceGraphic" in2="BackgroundImageFix" result="shape"/>
<feGaussianBlur stdDeviation="1.03125" result="effect1_foregroundBlur_1_651"/>
</filter>
<filter id="filter2_d_1_651" x="3.4375" y="4.125" width="37.125" height="37.125" filterUnits="userSpaceOnUse" color-interpolation-filters="sRGB">
<feFlood flood-opacity="0" result="BackgroundImageFix"/>
<feColorMatrix in="SourceAlpha" type="matrix" values="0 0 0 0 0 0 0 0 0 0 0 0 0 0 0 0 0 0 127 0" result="hardAlpha"/>
<feOffset dy="0.6875"/>
<feGaussianBlur stdDeviation="0.6875"/>
<feComposite in2="hardAlpha" operator="out"/>
<feColorMatrix type="matrix" values="0 0 0 0 0 0 0 0 0 0 0 0 0 0 0 0 0 0 0.5 0"/>
<feBlend mode="normal" in2="BackgroundImageFix" result="effect1_dropShadow_1_651"/>
<feBlend mode="normal" in="SourceGraphic" in2="effect1_dropShadow_1_651" result="shape"/>
</filter>
<linearGradient id="paint0_linear_1_651" x1="22.0387" y1="27.1808" x2="22.0602" y2="13.4063" gradientUnits="userSpaceOnUse">
<stop stop-color="#307E76"/>
<stop offset="0.572498" stop-color="#84FAFD"/>
</linearGradient>
<linearGradient id="paint1_linear_1_651" x1="22.0387" y1="27.1808" x2="22.0602" y2="13.4063" gradientUnits="userSpaceOnUse">
<stop stop-color="#307E76"/>
<stop offset="0.572498" stop-color="#84FAFD"/>
</linearGradient>
<linearGradient id="paint2_linear_1_651" x1="22.0716" y1="39.2489" x2="22.1443" y2="4.81266" gradientUnits="userSpaceOnUse">
<stop stop-color="#307E76"/>
<stop offset="0.572498" stop-color="#84FAFD"/>
</linearGradient>
<linearGradient id="paint3_linear_1_651" x1="22.0716" y1="39.2489" x2="22.1443" y2="4.81266" gradientUnits="userSpaceOnUse">
<stop stop-color="#307E76"/>
<stop offset="0.572498" stop-color="#84FAFD"/>
</linearGradient>
<clipPath id="clip0_1_651">
<rect width="44" height="44" fill="white"/>
</clipPath>
</defs>
</svg>
